<?xml version="1.0" encoding="UTF-8" standalone="no"?>
<!-- Created with Inkscape (http://www.inkscape.org/) -->

<svg
   width="24"
   height="24"
   viewBox="0 0 6.3499998 6.35"
   version="1.1"
   id="svg3884"
   inkscape:version="1.2 (1:1.2+202206011327+fc4e4096c5)"
   sodipodi:docname="bars.svg"
   xmlns:inkscape="http://www.inkscape.org/namespaces/inkscape"
   xmlns:sodipodi="http://sodipodi.sourceforge.net/DTD/sodipodi-0.dtd"
   xmlns="http://www.w3.org/2000/svg"
   xmlns:svg="http://www.w3.org/2000/svg">
  <sodipodi:namedview
     id="namedview3886"
     pagecolor="#ffffff"
     bordercolor="#666666"
     borderopacity="1.0"
     inkscape:showpageshadow="2"
     inkscape:pageopacity="0.0"
     inkscape:pagecheckerboard="0"
     inkscape:deskcolor="#d1d1d1"
     inkscape:document-units="mm"
     showgrid="false"
     inkscape:zoom="13.395629"
     inkscape:cx="1.716978"
     inkscape:cy="10.861752"
     inkscape:window-width="1452"
     inkscape:window-height="672"
     inkscape:window-x="146"
     inkscape:window-y="148"
     inkscape:window-maximized="0"
     inkscape:current-layer="layer1" />
  <defs
     id="defs3881" />
  <g
     inkscape:label="Layer 1"
     inkscape:groupmode="layer"
     id="layer1">
    <path
       id="path1390"
       style="color:#000000;fill:#000000;stroke-width:1;stroke-linecap:round;-inkscape-stroke:none"
       d="M 0.39185586,0.87871172 A 0.39312219,0.39312219 0 0 0 -5.1680852e-4,1.2716649 0.39312219,0.39312219 0 0 0 0.39185586,1.6640376 H 5.9576274 A 0.39312219,0.39312219 0 0 0 6.35,1.2716649 0.39312219,0.39312219 0 0 0 5.9576274,0.87871172 Z m 0,1.90207878 A 0.39312219,0.39312219 0 0 0 -5.1680852e-4,3.1760653 0.39312219,0.39312219 0 0 0 0.39185586,3.568438 H 5.9576274 A 0.39312219,0.39312219 0 0 0 6.35,3.1760653 0.39312219,0.39312219 0 0 0 5.9576274,2.7807905 Z m 0,1.9044005 A 0.39312219,0.39312219 0 0 0 -5.1680852e-4,5.0775637 0.39312219,0.39312219 0 0 0 0.39185586,5.4728386 H 5.9576274 A 0.39312219,0.39312219 0 0 0 6.35,5.0775637 0.39312219,0.39312219 0 0 0 5.9576274,4.685191 Z" />
  </g>
</svg>
