<?xml version="1.0" encoding="UTF-8" standalone="no"?>
<!-- Created with Inkscape (http://www.inkscape.org/) -->

<svg
   width="48"
   height="48"
   viewBox="0 0 12.7 12.7"
   version="1.1"
   id="svg3884"
   inkscape:version="1.2 (1:1.2+202206011327+fc4e4096c5)"
   sodipodi:docname="chart.svg"
   xmlns:inkscape="http://www.inkscape.org/namespaces/inkscape"
   xmlns:sodipodi="http://sodipodi.sourceforge.net/DTD/sodipodi-0.dtd"
   xmlns="http://www.w3.org/2000/svg"
   xmlns:svg="http://www.w3.org/2000/svg">
  <sodipodi:namedview
     id="namedview3886"
     pagecolor="#ffffff"
     bordercolor="#666666"
     borderopacity="1.0"
     inkscape:showpageshadow="2"
     inkscape:pageopacity="0.0"
     inkscape:pagecheckerboard="0"
     inkscape:deskcolor="#d1d1d1"
     inkscape:document-units="mm"
     showgrid="false"
     inkscape:zoom="7.6883803"
     inkscape:cx="21.265857"
     inkscape:cy="16.713533"
     inkscape:window-width="1528"
     inkscape:window-height="836"
     inkscape:window-x="72"
     inkscape:window-y="27"
     inkscape:window-maximized="1"
     inkscape:current-layer="layer1" />
  <defs
     id="defs3881" />
  <g
     inkscape:label="Layer 1"
     inkscape:groupmode="layer"
     id="layer1">
    <path
       id="rect340"
       style="fill:#000000;stroke-width:0.7;stroke-linecap:round"
       d="M 5.0255327,1.2367868 A 0.45004499,0.45004499 0 0 0 4.6756833,1.3716623 l -2.7047445,2.788977 a 0.44999999,0.44999999 0 0 0 0.0093,0.6345866 0.44999999,0.44999999 0 0 0 0.6371704,-0.00982 L 4.9568031,2.3736683 7.3437375,5.5083607 a 0.45004499,0.45004499 0 0 0 0.6133992,0.097668 L 9.9968056,4.2024972 V 5.15231 c 0,0.1390241 0.1121224,0.2506307 0.2511474,0.2506307 h 0.375688 c 0.139025,0 0.251147,-0.1116066 0.251147,-0.2506307 V 3.4609404 c 0.0073,-0.023602 0.01085,-0.048864 0.01085,-0.074931 V 3.0103219 c 0,-0.1390239 -0.111606,-0.2511474 -0.25063,-0.2511474 H 8.5028399 c -0.1390241,0 -0.2511475,0.1121235 -0.2511475,0.2511474 v 0.3756877 c 0,0.1390241 0.1121234,0.2511475 0.2511475,0.2511475 H 9.230444 L 7.8005572,4.6215931 5.3552284,1.4124866 A 0.45004499,0.45004499 0 0 0 5.0255327,1.2367868 Z M 4.6467445,4.0810576 c -0.367426,0 -0.6630086,0.2955827 -0.6630086,0.6630086 V 9.7551299 H 6.0120358 V 4.7440662 c 0,-0.3674259 -0.2960992,-0.6630086 -0.6635254,-0.6630086 z M 1.9425168,5.591043 c -0.367426,0 -0.6630086,0.2960994 -0.6630086,0.6635253 V 9.7551299 H 3.3078081 V 6.2545683 c 0,-0.3674259 -0.2960992,-0.6635253 -0.6635254,-0.6635253 z m 8.1132002,0.2687174 c -0.3674264,0 -0.6635257,0.2960991 -0.6635257,0.6635254 V 9.7551299 H 11.420492 V 6.5232858 c 0,-0.3674263 -0.295582,-0.6635254 -0.663009,-0.6635254 z M 7.351489,6.6493763 c -0.3674262,0 -0.6635254,0.2960994 -0.6635254,0.6635254 V 9.7551299 H 8.7162635 V 7.3129017 c 0,-0.367426 -0.2955825,-0.6635254 -0.6630085,-0.6635254 z M 1.9425168,10.137536 c -0.3674268,0 -0.6630086,0.295581 -0.6630086,0.663008 0,0.367427 0.2955818,0.663526 0.6630086,0.663526 h 8.8149662 c 0.367427,0 0.663009,-0.296099 0.663009,-0.663526 0,-0.367427 -0.295582,-0.663008 -0.663009,-0.663008 z" />
  </g>
</svg>
