<?xml version="1.0" encoding="UTF-8" standalone="no"?>
<!-- Created with Inkscape (http://www.inkscape.org/) -->

<svg
   width="24"
   height="24"
   viewBox="0 0 6.3499998 6.35"
   version="1.1"
   id="svg3884"
   inkscape:version="1.2 (1:1.2+202206011327+fc4e4096c5)"
   sodipodi:docname="close.svg"
   xmlns:inkscape="http://www.inkscape.org/namespaces/inkscape"
   xmlns:sodipodi="http://sodipodi.sourceforge.net/DTD/sodipodi-0.dtd"
   xmlns="http://www.w3.org/2000/svg"
   xmlns:svg="http://www.w3.org/2000/svg">
  <sodipodi:namedview
     id="namedview3886"
     pagecolor="#ffffff"
     bordercolor="#666666"
     borderopacity="1.0"
     inkscape:showpageshadow="2"
     inkscape:pageopacity="0.0"
     inkscape:pagecheckerboard="0"
     inkscape:deskcolor="#d1d1d1"
     inkscape:document-units="mm"
     showgrid="false"
     inkscape:zoom="8.8280944"
     inkscape:cx="17.557583"
     inkscape:cy="6.5132969"
     inkscape:window-width="1452"
     inkscape:window-height="672"
     inkscape:window-x="262"
     inkscape:window-y="43"
     inkscape:window-maximized="0"
     inkscape:current-layer="layer1" />
  <defs
     id="defs3881" />
  <g
     inkscape:label="Layer 1"
     inkscape:groupmode="layer"
     id="layer1">
    <path
       id="path2145"
       style="color:#000000;fill:#000000;stroke-width:0.999997;stroke-linecap:round;stroke-linejoin:round;-inkscape-stroke:none"
       d="m 0.30936841,0.08638819 a 0.30925272,0.30925272 0 0 0 -0.2186844,0.09058008 0.30925272,0.30925272 0 0 0 0,0.43730705 L 2.7375975,3.2611889 0.09068401,5.9080398 a 0.30925272,0.30925272 0 0 0 0,0.4375613 0.30925272,0.30925272 0 0 0 0.43730546,0 L 3.1750321,3.6986234 5.822009,6.3456011 a 0.30925272,0.30925272 0 0 0 0.437307,0 0.30925272,0.30925272 0 0 0 0,-0.4375613 L 3.6124017,3.2611889 6.259316,0.61427532 a 0.30925272,0.30925272 0 0 0 0,-0.43730705 A 0.30925272,0.30925272 0 0 0 6.0406934,0.08638819 0.30925272,0.30925272 0 0 0 5.822009,0.17696827 L 3.1750321,2.8238818 0.52798947,0.17696827 A 0.30925272,0.30925272 0 0 0 0.30936841,0.08638819 Z" />
  </g>
</svg>
