<?xml version="1.0" encoding="UTF-8" standalone="no"?>
<!-- Created with Inkscape (http://www.inkscape.org/) -->

<svg
   width="48"
   height="48"
   viewBox="0 0 12.7 12.7"
   version="1.1"
   id="svg3884"
   inkscape:version="1.2 (1:1.2+202206011327+fc4e4096c5)"
   sodipodi:docname="close.svg"
   xmlns:inkscape="http://www.inkscape.org/namespaces/inkscape"
   xmlns:sodipodi="http://sodipodi.sourceforge.net/DTD/sodipodi-0.dtd"
   xmlns="http://www.w3.org/2000/svg"
   xmlns:svg="http://www.w3.org/2000/svg">
  <sodipodi:namedview
     id="namedview3886"
     pagecolor="#ffffff"
     bordercolor="#666666"
     borderopacity="1.0"
     inkscape:showpageshadow="2"
     inkscape:pageopacity="0.0"
     inkscape:pagecheckerboard="0"
     inkscape:deskcolor="#d1d1d1"
     inkscape:document-units="mm"
     showgrid="false"
     inkscape:zoom="6.7334159"
     inkscape:cx="25.767011"
     inkscape:cy="27.252141"
     inkscape:window-width="1452"
     inkscape:window-height="672"
     inkscape:window-x="148"
     inkscape:window-y="43"
     inkscape:window-maximized="0"
     inkscape:current-layer="layer1" />
  <defs
     id="defs3881" />
  <g
     inkscape:label="Layer 1"
     inkscape:groupmode="layer"
     id="layer1">
    <path
       id="path2145"
       style="color:#000000;fill:#000000;stroke-width:1;stroke-linecap:round;stroke-linejoin:round;-inkscape-stroke:none"
       d="m 2.1065944,1.7348124 a 0.45793909,0.45793909 0 0 0 -0.3238262,0.1341303 0.45793909,0.45793909 0 0 0 0,0.6475609 L 5.7022977,6.4360333 1.7827682,10.35547 a 0.45793909,0.45793909 0 0 0 0,0.647938 0.45793909,0.45793909 0 0 0 0.6475587,0 l 3.9197206,-3.919625 3.9196235,3.919625 a 0.45793909,0.45793909 0 0 0 0.647561,0 0.45793909,0.45793909 0 0 0 0,-0.647938 L 6.9977011,6.4360333 10.917232,2.5165036 a 0.45793909,0.45793909 0 0 0 0,-0.6475609 0.45793909,0.45793909 0 0 0 -0.323735,-0.1341303 0.45793909,0.45793909 0 0 0 -0.323826,0.1341303 L 6.3500475,5.7884722 2.4303269,1.8689427 A 0.45793909,0.45793909 0 0 0 2.1065944,1.7348124 Z" />
  </g>
</svg>
