<?xml version="1.0" encoding="UTF-8" standalone="no"?>
<!-- Created with Inkscape (http://www.inkscape.org/) -->

<svg
   width="24"
   height="24"
   viewBox="0 0 6.3499998 6.35"
   version="1.1"
   id="svg3884"
   inkscape:version="1.2 (1:1.2+202206011327+fc4e4096c5)"
   sodipodi:docname="csv.svg"
   xmlns:inkscape="http://www.inkscape.org/namespaces/inkscape"
   xmlns:sodipodi="http://sodipodi.sourceforge.net/DTD/sodipodi-0.dtd"
   xmlns="http://www.w3.org/2000/svg"
   xmlns:svg="http://www.w3.org/2000/svg">
  <sodipodi:namedview
     id="namedview3886"
     pagecolor="#ffffff"
     bordercolor="#666666"
     borderopacity="1.0"
     inkscape:showpageshadow="2"
     inkscape:pageopacity="0.0"
     inkscape:pagecheckerboard="0"
     inkscape:deskcolor="#d1d1d1"
     inkscape:document-units="mm"
     showgrid="false"
     inkscape:zoom="8.9835975"
     inkscape:cx="22.151482"
     inkscape:cy="3.1724485"
     inkscape:window-width="1452"
     inkscape:window-height="672"
     inkscape:window-x="262"
     inkscape:window-y="43"
     inkscape:window-maximized="0"
     inkscape:current-layer="layer1" />
  <defs
     id="defs3881" />
  <g
     inkscape:label="Layer 1"
     inkscape:groupmode="layer"
     id="layer1">
    <path
       id="path2373"
       style="color:#000000;fill:#000000;stroke-width:1;-inkscape-stroke:none"
       d="M 0,0.30167166 V 3.2728744 H 1.6068812 V 2.3778499 H 0.89502462 V 1.1967884 H 2.3191077 V 3.144565 C 2.3172322,3.1620907 2.2620708,3.6716057 1.9953263,4.1799243 1.723971,4.6970285 1.3208827,5.1533049 0.4474665,5.1533049 v 0.8950234 c 1.2192706,0 1.9754378,-0.756584 2.3405679,-1.4523908 C 3.1531647,3.9001318 3.2120954,3.21663 3.2120954,3.21663 L 3.2142154,3.196 V 0.30167166 Z m 4.0752047,0 A 0.44753937,0.44753937 0 0 0 3.6276466,0.74913755 0.44753937,0.44753937 0 0 0 4.0752047,1.1966958 H 5.9024419 A 0.44753937,0.44753937 0 0 0 6.35,0.74913755 0.44753937,0.44753937 0 0 0 5.9024419,0.30167166 Z m 0,1.87682264 A 0.44753937,0.44753937 0 0 0 3.6276466,2.6260515 0.44753937,0.44753937 0 0 0 4.0752047,3.0736102 H 5.9024419 A 0.44753937,0.44753937 0 0 0 6.35,2.6260515 0.44753937,0.44753937 0 0 0 5.9024419,2.1784943 Z m 0,1.8769145 A 0.44753937,0.44753937 0 0 0 3.6276466,4.5028738 0.44753937,0.44753937 0 0 0 4.0752047,4.9504319 H 5.9024419 A 0.44753937,0.44753937 0 0 0 6.35,4.5028738 0.44753937,0.44753937 0 0 0 5.9024419,4.0554088 Z" />
  </g>
</svg>
