<?xml version="1.0" encoding="UTF-8" standalone="no"?>
<!-- Created with Inkscape (http://www.inkscape.org/) -->

<svg
   width="4.9400415mm"
   height="5.0431738mm"
   viewBox="0 0 4.9400415 5.0431738"
   version="1.1"
   id="svg650"
   inkscape:version="1.2 (1:1.2+202206011327+fc4e4096c5)"
   sodipodi:docname="favicon.svg"
   xmlns:inkscape="http://www.inkscape.org/namespaces/inkscape"
   xmlns:sodipodi="http://sodipodi.sourceforge.net/DTD/sodipodi-0.dtd"
   xmlns="http://www.w3.org/2000/svg"
   xmlns:svg="http://www.w3.org/2000/svg">
  <sodipodi:namedview
     id="namedview652"
     pagecolor="#ffffff"
     bordercolor="#000000"
     borderopacity="0.25"
     inkscape:showpageshadow="2"
     inkscape:pageopacity="0.0"
     inkscape:pagecheckerboard="0"
     inkscape:deskcolor="#d1d1d1"
     inkscape:document-units="mm"
     showgrid="false"
     inkscape:zoom="16.078114"
     inkscape:cx="13.030135"
     inkscape:cy="8.4898017"
     inkscape:window-width="1528"
     inkscape:window-height="836"
     inkscape:window-x="72"
     inkscape:window-y="27"
     inkscape:window-maximized="1"
     inkscape:current-layer="g3130" />
  <defs
     id="defs647" />
  <g
     inkscape:label="Layer 1"
     inkscape:groupmode="layer"
     id="layer1"
     transform="translate(42.491293,-89.106073)">
    <g
       id="g3130"
       transform="matrix(0.07445119,0,0,0.07445119,-57.59627,89.548692)">
      <g
         id="g424"
         style="fill:#ffffff">
        <path
           style="color:#000000;fill:#ffffff;stroke-linejoin:round"
           d="m 236.05859,-0.3359375 c -15.59668,0 -28.25781,12.6611325 -28.25781,28.2578125 0,15.59668 12.66113,28.259766 28.25781,28.259766 15.59668,0 28.25977,-12.663086 28.25977,-28.259766 0,-15.59668 -12.66309,-28.2578125 -28.25977,-28.2578125 z m 0,1.703125 c 14.67639,0 26.55664,11.8783005 26.55664,26.5546875 0,14.676387 -11.88025,26.556641 -26.55664,26.556641 -14.67638,0 -26.55468,-11.880254 -26.55468,-26.556641 0,-14.676387 11.8783,-26.5546875 26.55468,-26.5546875 z"
           id="circle3120" />
        <path
           style="color:#000000;fill:#ffffff;stroke-linejoin:round"
           d="m 219.62695,16.666016 c -3.35722,0 -6.08789,2.730667 -6.08789,6.08789 0,3.357224 2.73067,6.087891 6.08789,6.087891 3.35723,0 6.08789,-2.730667 6.08789,-6.087891 0,-3.357223 -2.73066,-6.08789 -6.08789,-6.08789 z m 0,0.851562 c 2.89708,0 5.23633,2.339252 5.23633,5.236328 0,2.897077 -2.33925,5.236328 -5.23633,5.236328 -2.89707,0 -5.23632,-2.339251 -5.23633,-5.236328 0,-2.897076 2.33926,-5.236328 5.23633,-5.236328 z"
           id="circle3122" />
        <path
           style="color:#000000;fill:#ffffff;stroke-linejoin:round"
           d="m 222.66992,31.902344 c -1.80715,0 -3.27734,1.470187 -3.27734,3.277343 0,1.807157 1.47019,3.277344 3.27734,3.277344 1.80716,0 3.27735,-1.470187 3.27735,-3.277344 0,-1.807156 -1.47019,-3.277343 -3.27735,-3.277343 z m 0,0.541015 c 1.51434,0 2.73633,1.221993 2.73633,2.736328 0,1.514336 -1.22199,2.736329 -2.73633,2.736329 -1.51433,0 -2.73633,-1.221993 -2.73633,-2.736329 0,-1.514335 1.222,-2.736328 2.73633,-2.736328 z"
           id="circle3124" />
        <path
           style="color:#000000;fill:#ffffff;stroke-linejoin:round"
           d="m 228.01562,26.318359 c -1.37581,0 -2.49804,1.12223 -2.49804,2.498047 0,1.375818 1.12223,2.498047 2.49804,2.498047 1.37582,0 2.49805,-1.122229 2.49805,-2.498047 0,-1.375817 -1.12223,-2.498047 -2.49805,-2.498047 z m 0,0.640625 c 1.02976,0 1.85743,0.827666 1.85743,1.857422 0,1.029757 -0.82767,1.857422 -1.85743,1.857422 -1.02975,0 -1.85742,-0.827665 -1.85742,-1.857422 0,-1.029756 0.82767,-1.857422 1.85742,-1.857422 z"
           id="circle3126" />
        <path
           style="color:#000000;fill:#ffffff;stroke-linejoin:round"
           d="m 296.94922,50.683594 c -3.19414,0.03674 -6.40638,1.595499 -9.22852,4.58789 l 1.66797,1.572266 c 3.35627,-3.558742 6.72634,-4.545511 10.04492,-3.5 3.31859,1.045511 6.74595,4.348685 9.57618,9.994141 5.66045,11.290911 7.61464,29.33048 4.76171,45.064449 -1.42646,7.86699 -3.90152,14.34763 -6.91015,18.77149 -3.00863,4.42385 -6.45204,6.7125 -9.90821,6.6875 -3.45616,-0.025 -6.90155,-2.36766 -9.89843,-6.83789 -2.99689,-4.47024 -5.45126,-10.98685 -6.85352,-18.875 l -2.25586,0.40039 c 1.44448,8.1256 3.96151,14.90889 7.20703,19.75 3.24553,4.84111 7.31386,7.82117 11.78516,7.85351 4.4713,0.0323 8.55596,-2.89246 11.81836,-7.68945 3.26239,-4.79699 5.79987,-11.54516 7.26953,-19.65039 2.93932,-16.210461 1.02969,-34.536845 -4.96875,-46.501953 -2.99922,-5.982554 -6.75193,-9.834305 -10.93555,-11.152344 -1.0459,-0.32951 -2.10716,-0.486856 -3.17187,-0.474609 z"
           id="path3128"
           transform="matrix(0.98805411,-0.15410735,-0.61450363,0.788914,0,0)" />
      </g>
    </g>
  </g>
</svg>
