<?xml version="1.0" encoding="UTF-8" standalone="no"?>
<!-- Created with Inkscape (http://www.inkscape.org/) -->

<svg
   width="52.404091mm"
   height="52.386246mm"
   viewBox="0 0 52.404091 52.386246"
   version="1.1"
   id="svg989"
   inkscape:version="1.2 (1:1.2+202206011327+fc4e4096c5)"
   sodipodi:docname="favicon.svg"
   xmlns:inkscape="http://www.inkscape.org/namespaces/inkscape"
   xmlns:sodipodi="http://sodipodi.sourceforge.net/DTD/sodipodi-0.dtd"
   xmlns="http://www.w3.org/2000/svg"
   xmlns:svg="http://www.w3.org/2000/svg">
  <sodipodi:namedview
     id="namedview991"
     pagecolor="#ffffff"
     bordercolor="#666666"
     borderopacity="1.0"
     inkscape:showpageshadow="2"
     inkscape:pageopacity="0.0"
     inkscape:pagecheckerboard="0"
     inkscape:deskcolor="#d1d1d1"
     inkscape:document-units="mm"
     showgrid="false"
     inkscape:zoom="0.39471305"
     inkscape:cx="95.005726"
     inkscape:cy="596.63596"
     inkscape:window-width="1528"
     inkscape:window-height="836"
     inkscape:window-x="72"
     inkscape:window-y="27"
     inkscape:window-maximized="1"
     inkscape:current-layer="g964" />
  <defs
     id="defs986" />
  <g
     inkscape:label="Layer 1"
     inkscape:groupmode="layer"
     id="layer1"
     transform="translate(-3.0579416e-5)">
    <g
       id="g964"
       style="fill:#4d4d4d;stroke-width:0.102661"
       transform="matrix(9.7408376,0,0,9.7408376,-5858.2367,-190.59841)">
      <path
         id="path14834"
         style="fill:#ffffff;fill-opacity:1;stroke-width:0.0279667;stroke-linejoin:round"
         d="m 603.30938,19.685117 a 2.6896196,2.6896196 0 0 0 -0.47041,0.199885 c 0.11645,-0.05925 0.24147,-0.110513 0.38949,-0.160844 0.35101,-0.119354 0.64924,-0.162692 0.97578,-0.141742 0.18971,0.01216 0.55807,0.07385 0.56442,0.09452 0.009,0.02943 -0.0681,0.139039 -0.15599,0.221777 -0.10486,0.09855 -0.21694,0.14713 -0.71075,0.307556 -0.31907,0.10366 -0.40019,0.125433 -0.57319,0.153833 -0.24446,0.04014 -0.51185,0.06612 -0.67169,0.06529 -0.1846,-9.73e-4 -0.41963,-0.02109 -0.44564,-0.03811 -0.0129,-0.0087 -0.0162,-0.01993 -0.006,-0.03805 a 2.6896196,2.6896196 0 0 0 -0.509,0.699519 c 10e-4,-0.0017 10e-4,-0.0034 0.004,-0.0047 0.0315,-0.03445 0.035,-0.03548 0.0887,-0.02562 0.0658,0.01216 0.13061,0.07013 0.14248,0.127594 0.007,0.03515 10e-4,0.04536 -0.0449,0.07553 -0.0293,0.01917 -0.11573,0.05852 -0.19213,0.08744 -0.0795,0.03017 -0.1143,0.0419 -0.12603,0.04034 a 2.6896196,2.6896196 0 0 0 -0.15834,0.944403 l 0.10358,-0.08076 c 0.0634,-0.04947 0.18531,-0.140283 0.27079,-0.201833 0.20552,-0.147938 0.37801,-0.281478 0.7313,-0.566268 0.33713,-0.271763 0.44919,-0.351349 0.60966,-0.432904 0.12432,-0.0632 0.21055,-0.08867 0.86535,-0.255591 0.44534,-0.113531 0.66021,-0.195086 0.74656,-0.283306 0.0771,-0.07881 0.16928,-0.24115 0.27405,-0.48331 0.0482,-0.111014 0.0911,-0.202722 0.0958,-0.203747 0.004,-0.0011 0.0604,0.02336 0.12418,0.05418 l 0.11573,0.05598 -0.0355,0.09376 c -0.0796,0.209614 -0.0797,0.304958 -2.9e-4,0.343799 0.0618,0.03034 0.12289,0.02286 0.32826,-0.04016 0.15672,-0.0481 0.19413,-0.05551 0.21752,-0.04307 0.0508,0.02694 0.0381,0.05774 -0.0499,0.120513 -0.108,0.07711 -0.28837,0.158506 -0.62226,0.280743 -0.14789,0.05419 -0.31181,0.11861 -0.36407,0.143196 -0.19441,0.09141 -0.41305,0.283772 -0.86261,0.758989 -0.29453,0.311336 -0.35557,0.370603 -0.47062,0.456707 -0.20114,0.150544 -0.48709,0.255867 -0.71688,0.264056 -0.21692,0.0077 -0.43662,0.0412 -0.701,0.106821 -0.30466,0.07561 -0.35217,0.09605 -0.48908,0.21054 -0.0588,0.04913 -0.11544,0.0919 -0.12589,0.09509 -0.004,0.0012 -0.007,0.0012 -0.01,-0.0013 a 2.6896196,2.6896196 0 0 0 0.0831,0.359705 2.6896196,2.6896196 0 0 0 0.34655,0.722441 l 0.007,-0.01914 c 0.0258,-0.07262 0.13061,-0.208562 0.24313,-0.315212 l 0.10715,-0.1016 0.36587,-0.120584 0.36581,-0.12057 0.15958,-0.122344 c 0.30182,-0.23139 0.34061,-0.243641 0.80515,-0.254345 l 0.18844,-0.0043 0.31328,-0.09681 c 0.343,-0.106021 0.41765,-0.141686 0.52494,-0.251337 0.0963,-0.09834 0.12833,-0.192902 0.15509,-0.458335 0.0446,-0.43935 0.0843,-0.488385 0.5452,-0.672936 0.28068,-0.112372 0.30859,-0.125834 0.39006,-0.187946 0.0712,-0.05429 0.11144,-0.131299 0.14684,-0.281293 0.0129,-0.05711 0.0283,-0.105191 0.0335,-0.106836 0.0162,-0.0057 0.19641,0.275656 0.26223,0.410824 0.0359,0.07388 0.0255,0.104404 -0.0635,0.184992 -0.0425,0.03843 -0.0997,0.09639 -0.12761,0.12881 -0.0589,0.06893 -0.0651,0.113545 -0.0435,0.321542 0.0179,0.170423 0.001,0.251424 -0.0635,0.332138 -0.0918,0.112973 -0.28308,0.241942 -0.49256,0.332217 -0.19981,0.08612 -0.20802,0.09129 -0.23885,0.149846 -0.0289,0.05501 -0.0386,0.130397 -0.0325,0.25329 0.004,0.07137 -0.0323,0.146863 -0.15581,0.328553 -0.0969,0.142443 -0.10758,0.209087 -0.0554,0.349243 0.0425,0.113975 0.0826,0.158667 0.13963,0.155702 0.0647,-0.0034 0.12732,-0.09277 0.20717,-0.295991 0.0406,-0.103231 0.0871,-0.199557 0.10358,-0.214041 0.0459,-0.04076 0.101,-0.0517 0.20327,-0.04043 0.0748,0.0083 0.11445,0.004 0.19393,-0.02067 0.12432,-0.03864 0.2053,-0.09153 0.38061,-0.24922 0.13948,-0.12552 0.22686,-0.174123 0.27094,-0.150761 0.0382,0.02027 -10e-4,0.136764 -0.0691,0.197678 -0.0212,0.01934 -0.0771,0.09127 -0.12432,0.159874 -0.0939,0.136134 -0.11902,0.155576 -0.30563,0.236238 -0.12432,0.05376 -0.20525,0.11748 -0.21553,0.169899 -0.009,0.04429 0.0215,0.129211 0.0551,0.155399 0.0162,0.01259 0.0518,0.02034 0.0791,0.01725 0.0408,-0.0047 0.0638,-0.01954 0.12746,-0.08249 0.0735,-0.07279 0.18951,-0.15466 0.24187,-0.17071 0.0436,-0.01345 0.0353,0.02715 -0.0293,0.144094 -0.0498,0.09004 -0.0751,0.121242 -0.11373,0.140298 -0.0272,0.01345 -0.11101,0.06061 -0.18586,0.104647 -0.12503,0.07365 -0.16012,0.08751 -0.4359,0.173081 l -0.29988,0.09303 -0.078,0.07894 c -0.0429,0.04342 -0.12904,0.147903 -0.19153,0.232169 -0.0624,0.08427 -0.13033,0.167348 -0.15096,0.184677 -0.0482,0.0406 -0.24471,0.10047 -0.35757,0.108824 -0.0471,0.0034 -0.13762,0.0077 -0.20141,0.0096 -0.0896,0.0026 -0.15222,0.01416 -0.27611,0.05189 -0.18504,0.05634 -0.24468,0.09357 -0.33982,0.211957 -0.0329,0.04083 -0.0635,0.07498 -0.0701,0.07759 a 2.6896196,2.6896196 0 0 0 1.11673,-0.09654 2.6896196,2.6896196 0 0 0 1.78226,-3.360325 2.6896196,2.6896196 0 0 0 -3.36038,-1.782233 z m -0.47041,0.199885 c -0.0217,0.01102 -0.0432,0.02219 -0.0644,0.03382 a 2.6896196,2.6896196 0 0 1 0.0644,-0.03382 z m -0.19341,0.110226 c -0.0381,0.02433 -0.0764,0.05094 -0.11488,0.07855 a 2.6896196,2.6896196 0 0 1 0.11488,-0.07855 z m -0.17092,0.119297 a 2.6896196,2.6896196 0 0 0 -0.0584,0.04532 c 0.0196,-0.01545 0.039,-0.03087 0.0584,-0.04532 z m 1.19872,0.946965 c -0.181,0.05296 -0.48927,0.171033 -0.58312,0.226043 -0.101,0.05918 -0.21744,0.164042 -0.37705,0.339463 -0.23401,0.25722 -0.31714,0.403898 -0.2859,0.504425 0.0197,0.06342 0.0312,0.07523 0.0844,0.08591 0.11931,0.02396 0.30714,-0.02396 0.55422,-0.141427 0.27265,-0.129626 0.38395,-0.220285 0.70016,-0.570066 0.19078,-0.211057 0.27586,-0.343127 0.25816,-0.400847 -0.0283,-0.09173 -0.092,-0.105763 -0.28223,-0.06186 -0.0197,0.0044 -0.0429,0.01087 -0.0688,0.01837 z m 2.29761,0.250343 -0.13391,0.05103 c -0.3393,0.129225 -0.49634,0.251449 -0.53016,0.412582 -0.0189,0.08986 -0.028,0.42036 -0.0129,0.46923 0.006,0.0183 0.0227,0.03644 0.0379,0.04027 0.0333,0.0084 0.13133,-0.03463 0.17018,-0.07488 0.0162,-0.01582 0.0469,-0.05511 0.0702,-0.08717 0.0398,-0.05462 0.0516,-0.06176 0.18994,-0.113188 l 0.14755,-0.05491 0.0215,-0.115648 c 0.0129,-0.06363 0.0359,-0.155343 0.0535,-0.203754 0.0372,-0.102058 0.0389,-0.15236 0.009,-0.251745 z m -2.19026,1.538577 c -0.0797,0.01967 -0.15599,0.06531 -0.19228,0.127994 -0.0472,0.08161 0.006,0.159657 0.11459,0.170924 0.0652,0.0066 0.21802,-0.05675 0.27285,-0.113417 0.0605,-0.06267 0.0667,-0.116607 0.018,-0.157356 -0.0498,-0.04142 -0.13305,-0.04781 -0.21262,-0.02815 z m -0.65433,0.293283 c -0.0464,0.01016 -0.10973,0.05785 -0.23708,0.171481 -0.16443,0.146555 -0.21586,0.168517 -0.40506,0.172542 -0.19373,0.004 -0.28623,0.03954 -0.43788,0.167726 -0.0612,0.05183 -0.12718,0.103746 -0.1463,0.115319 l -0.0162,0.01016 a 2.6896196,2.6896196 0 0 0 1.24661,0.98395 l 0.0757,-0.136435 c 0.0976,-0.175975 0.147,-0.220159 0.40514,-0.362751 0.23173,-0.128009 0.2919,-0.170799 0.31951,-0.227034 0.01,-0.02187 0.0342,-0.115906 0.0519,-0.208974 l 0.0323,-0.169217 0.28408,-0.09486 c 0.3139,-0.104833 0.29562,-0.09405 0.44459,-0.261514 0.13404,-0.150653 0.19777,-0.208327 0.29288,-0.265219 0.10086,-0.06027 0.16588,-0.119496 0.16821,-0.152809 10e-4,-0.0133 -0.007,-0.05033 -0.0162,-0.0822 -0.0232,-0.07549 -0.078,-0.100013 -0.16426,-0.07352 -0.0699,0.02146 -0.20739,0.117165 -0.3136,0.218339 -0.18551,0.176728 -0.29075,0.217172 -0.62352,0.239594 -0.29387,0.0198 -0.29576,0.02006 -0.39767,0.05133 -0.12761,0.03916 -0.17216,0.07038 -0.41003,0.28816 -0.11588,0.106135 -0.2404,0.214333 -0.27655,0.240437 -0.0858,0.06203 -0.27384,0.120198 -0.56658,0.175346 -0.33718,0.06353 -0.37064,0.06824 -0.38087,0.05368 -0.0129,-0.01761 0.0661,-0.08043 0.14503,-0.115906 0.0375,-0.01689 0.13705,-0.03927 0.25071,-0.05636 0.10372,-0.01564 0.23884,-0.03933 0.30036,-0.05275 0.13218,-0.02883 0.13461,-0.03084 0.28753,-0.252235 0.0554,-0.08006 0.12274,-0.173601 0.1497,-0.207836 0.0428,-0.05408 0.0472,-0.06838 0.0349,-0.108925 -0.01,-0.03506 -0.0242,-0.04956 -0.0545,-0.0583 -0.0129,-0.004 -0.027,-0.0047 -0.0425,-0.0012 z m 1.38949,0.624829 c -0.12346,0.04336 -0.23131,0.121486 -0.24076,0.193993 -0.0162,0.12439 0.0865,0.218861 0.23177,0.213029 0.0639,-0.0026 0.24511,-0.07239 0.30943,-0.119311 0.0659,-0.04811 0.12346,-0.158382 0.10844,-0.207528 -0.0145,-0.04406 -0.11287,-0.103403 -0.18759,-0.111972 -0.0675,-0.0077 -0.14718,0.0057 -0.22127,0.0318 z m -1.32623,1.017361 a 2.6896196,2.6896196 0 0 0 0.5636,0.136349 c -0.0227,-0.0029 -0.0865,-0.01564 -0.17001,-0.03468 -0.0971,-0.02218 -0.23918,-0.05807 -0.31588,-0.07973 z" />
    </g>
  </g>
</svg>
