<?xml version="1.0" encoding="UTF-8" standalone="no"?>
<!-- Created with Inkscape (http://www.inkscape.org/) -->

<svg
   width="256mm"
   height="52.386246mm"
   viewBox="0 0 256 52.386246"
   version="1.1"
   id="svg989"
   inkscape:version="1.2 (1:1.2+202206011327+fc4e4096c5)"
   sodipodi:docname="logo0.svg"
   xml:space="preserve"
   xmlns:inkscape="http://www.inkscape.org/namespaces/inkscape"
   xmlns:sodipodi="http://sodipodi.sourceforge.net/DTD/sodipodi-0.dtd"
   xmlns="http://www.w3.org/2000/svg"
   xmlns:svg="http://www.w3.org/2000/svg"><sodipodi:namedview
     id="namedview991"
     pagecolor="#ffffff"
     bordercolor="#666666"
     borderopacity="1.0"
     inkscape:showpageshadow="2"
     inkscape:pageopacity="0.0"
     inkscape:pagecheckerboard="0"
     inkscape:deskcolor="#d1d1d1"
     inkscape:document-units="mm"
     showgrid="false"
     inkscape:zoom="0.82242033"
     inkscape:cx="493.66484"
     inkscape:cy="66.267817"
     inkscape:window-width="1528"
     inkscape:window-height="836"
     inkscape:window-x="72"
     inkscape:window-y="27"
     inkscape:window-maximized="1"
     inkscape:current-layer="layer1" /><defs
     id="defs986" /><g
     inkscape:label="Layer 1"
     inkscape:groupmode="layer"
     id="layer1"
     transform="translate(-3.0579416e-5)"><g
       aria-label="CosmoTools"
       id="text14812"
       style="font-size:32.8152px;font-family:'URW Gothic';-inkscape-font-specification:'URW Gothic';text-align:center;text-anchor:middle;fill:#4d4d4d;stroke-width:1.57914;stroke-linejoin:round" /><g
       id="g372"
       style="font-size:32.8152px;font-family:'URW Gothic';-inkscape-font-specification:'URW Gothic';text-align:center;text-anchor:middle;fill:#4d4d4d;stroke-width:1.57914;stroke-linejoin:round"><path
         d="m 93.105667,31.951795 c -1.017271,1.279792 -1.607944,1.936096 -2.428324,2.559585 -1.64076,1.279793 -3.806564,2.001728 -6.005182,2.001728 -5.644215,0 -10.238343,-4.626944 -10.238343,-10.336789 0,-5.841105 4.397237,-10.303973 10.205528,-10.303973 2.100172,0 4.069085,0.557859 5.677029,1.64076 1.082902,0.689119 1.739206,1.411054 2.658032,2.854923 h 2.723661 C 93.827602,16.200498 89.561626,13.640913 84.5409,13.640913 c -7.219344,0 -12.568222,5.381692 -12.568222,12.633852 0,7.120898 5.480139,12.469776 12.732298,12.469776 4.92228,0 8.663213,-2.297064 11.091538,-6.792746 z"
         id="path294" /><path
         d="m 107.87245,19.941431 c -5.34888,0 -9.417967,4.03627 -9.417967,9.286702 0,5.545769 4.036267,9.516408 9.614857,9.516408 5.25043,0 9.12262,-3.970639 9.12262,-9.352332 0,-5.480139 -3.90501,-9.450778 -9.31951,-9.450778 z m 0,2.231434 c 3.97064,0 6.85837,3.051813 6.85837,7.252159 0,4.134715 -2.8221,7.088084 -6.72711,7.088084 -4.13472,0 -7.08809,-2.986184 -7.08809,-7.219345 0,-4.069085 2.98619,-7.120898 6.95683,-7.120898 z"
         id="path296" /><path
         d="m 119.16083,33.034696 c 0.0328,3.478412 2.29707,5.709845 5.77548,5.709845 3.2487,0 5.48014,-2.297064 5.48014,-5.578584 0,-2.198618 -1.01727,-3.708118 -3.11745,-4.594128 -2.75647,-1.148532 -2.88773,-1.181347 -3.37996,-1.443869 -1.11572,-0.557858 -1.64076,-1.312608 -1.64076,-2.362694 0,-1.443869 1.14853,-2.592401 2.5924,-2.592401 1.57513,0 2.49395,0.918825 2.62522,2.625216 h 2.46114 c -0.0985,-2.887738 -2.16581,-4.85665 -5.05355,-4.85665 -2.92055,0 -5.08635,2.132988 -5.08635,5.053541 0,1.312608 0.45941,2.39551 1.34542,3.21589 0.75475,0.689119 0.78757,0.721934 3.31434,1.739205 2.78929,1.148532 3.47841,1.804836 3.47841,3.445596 0,1.804836 -1.24698,3.117445 -3.019,3.117445 -2.03454,0 -3.24871,-1.246978 -3.37997,-3.478412 z"
         id="path298" /><path
         d="m 133.36977,38.317944 h 2.42832 V 27.849895 c 0,-3.576857 1.80484,-5.67703 4.82384,-5.67703 1.47668,0 2.85492,0.590673 3.74093,1.64076 0.78757,0.918825 1.11572,2.165803 1.11572,4.03627 v 10.468049 h 2.42832 V 27.915525 c 0,-1.739206 0.26252,-2.822107 0.8532,-3.708118 0.85319,-1.279793 2.36269,-2.034542 4.06908,-2.034542 1.57513,0 2.95337,0.623489 3.77375,1.70639 0.6563,0.886011 0.98446,2.231434 0.98446,4.03627 v 10.402419 h 2.42832 V 27.653003 c 0,-2.362694 -0.4266,-3.872193 -1.44387,-5.184801 -1.24697,-1.607945 -3.28152,-2.526771 -5.6114,-2.526771 -2.78929,0 -4.72539,1.050087 -6.23488,3.445596 -1.41106,-2.428325 -3.15026,-3.445596 -5.87393,-3.445596 -2.26424,0 -3.64248,0.689119 -5.05354,2.493955 v -2.067357 h -2.42832 z"
         id="path300" /><path
         d="m 172.87926,19.941431 c -5.34887,0 -9.41796,4.03627 -9.41796,9.286702 0,5.545769 4.03627,9.516408 9.61485,9.516408 5.25044,0 9.12263,-3.970639 9.12263,-9.352332 0,-5.480139 -3.90501,-9.450778 -9.31952,-9.450778 z m 0,2.231434 c 3.97064,0 6.85838,3.051813 6.85838,7.252159 0,4.134715 -2.82211,7.088084 -6.72712,7.088084 -4.13471,0 -7.08808,-2.986184 -7.08808,-7.219345 0,-4.069085 2.98618,-7.120898 6.95682,-7.120898 z"
         id="path302" /><path
         d="m 187.87576,38.317944 h 2.42833 V 16.266129 h 5.54577 V 14.06751 H 182.33 v 2.198619 h 5.54576 z"
         id="path304" /><path
         d="m 205.39904,19.941431 c -5.34888,0 -9.41796,4.03627 -9.41796,9.286702 0,5.545769 4.03627,9.516408 9.61485,9.516408 5.25043,0 9.12263,-3.970639 9.12263,-9.352332 0,-5.480139 -3.90501,-9.450778 -9.31952,-9.450778 z m 0,2.231434 c 3.97064,0 6.85838,3.051813 6.85838,7.252159 0,4.134715 -2.82211,7.088084 -6.72712,7.088084 -4.13472,0 -7.08808,-2.986184 -7.08808,-7.219345 0,-4.069085 2.98618,-7.120898 6.95682,-7.120898 z"
         id="path306" /><path
         d="m 226.89296,19.941431 c -5.34888,0 -9.41796,4.03627 -9.41796,9.286702 0,5.545769 4.03626,9.516408 9.61485,9.516408 5.25043,0 9.12262,-3.970639 9.12262,-9.352332 0,-5.480139 -3.905,-9.450778 -9.31951,-9.450778 z m 0,2.231434 c 3.97064,0 6.85837,3.051813 6.85837,7.252159 0,4.134715 -2.8221,7.088084 -6.72711,7.088084 -4.13472,0 -7.08808,-2.986184 -7.08808,-7.219345 0,-4.069085 2.98618,-7.120898 6.95682,-7.120898 z"
         id="path308" /><path
         d="m 239.65803,38.317944 h 2.42832 V 14.06751 h -2.42832 z"
         id="path310" /><path
         d="m 244.74435,33.034696 c 0.0328,3.478412 2.29706,5.709845 5.77547,5.709845 3.24871,0 5.48014,-2.297064 5.48014,-5.578584 0,-2.198618 -1.01727,-3.708118 -3.11744,-4.594128 -2.75648,-1.148532 -2.88774,-1.181347 -3.37997,-1.443869 -1.11572,-0.557858 -1.64076,-1.312608 -1.64076,-2.362694 0,-1.443869 1.14853,-2.592401 2.5924,-2.592401 1.57513,0 2.49396,0.918825 2.62522,2.625216 h 2.46114 c -0.0984,-2.887738 -2.16581,-4.85665 -5.05354,-4.85665 -2.92056,0 -5.08636,2.132988 -5.08636,5.053541 0,1.312608 0.45941,2.39551 1.34542,3.21589 0.75475,0.689119 0.78757,0.721934 3.31434,1.739205 2.78929,1.148532 3.47841,1.804836 3.47841,3.445596 0,1.804836 -1.24698,3.117445 -3.019,3.117445 -2.03454,0 -3.2487,-1.246978 -3.37996,-3.478412 z"
         id="path312" /></g><g
       id="g3130"
       transform="matrix(0.77458881,0,0,0.77458881,-156.64792,4.563446)"
       style="stroke-width:0.096117"><path
         style="color:#000000;fill:#444444;stroke-width:0.096117;stroke-linejoin:round;-inkscape-stroke:none"
         d="m 236.05859,-0.3359375 c -15.59668,0 -28.25781,12.6611325 -28.25781,28.2578125 0,15.59668 12.66113,28.259766 28.25781,28.259766 15.59668,0 28.25977,-12.663086 28.25977,-28.259766 0,-15.59668 -12.66309,-28.2578125 -28.25977,-28.2578125 z m 0,1.703125 c 14.67639,0 26.55664,11.8783005 26.55664,26.5546875 0,14.676387 -11.88025,26.556641 -26.55664,26.556641 -14.67638,0 -26.55468,-11.880254 -26.55468,-26.556641 0,-14.676387 11.8783,-26.5546875 26.55468,-26.5546875 z"
         id="circle3120" /><path
         style="color:#000000;fill:#444444;stroke-width:0.096117;stroke-linejoin:round;-inkscape-stroke:none"
         d="m 219.62695,16.666016 c -3.35722,0 -6.08789,2.730667 -6.08789,6.08789 0,3.357224 2.73067,6.087891 6.08789,6.087891 3.35723,0 6.08789,-2.730667 6.08789,-6.087891 0,-3.357223 -2.73066,-6.08789 -6.08789,-6.08789 z m 0,0.851562 c 2.89708,0 5.23633,2.339252 5.23633,5.236328 0,2.897077 -2.33925,5.236328 -5.23633,5.236328 -2.89707,0 -5.23632,-2.339251 -5.23633,-5.236328 0,-2.897076 2.33926,-5.236328 5.23633,-5.236328 z"
         id="circle3122" /><path
         style="color:#000000;fill:#444444;stroke-width:0.096117;stroke-linejoin:round;-inkscape-stroke:none"
         d="m 222.66992,31.902344 c -1.80715,0 -3.27734,1.470187 -3.27734,3.277343 0,1.807157 1.47019,3.277344 3.27734,3.277344 1.80716,0 3.27735,-1.470187 3.27735,-3.277344 0,-1.807156 -1.47019,-3.277343 -3.27735,-3.277343 z m 0,0.541015 c 1.51434,0 2.73633,1.221993 2.73633,2.736328 0,1.514336 -1.22199,2.736329 -2.73633,2.736329 -1.51433,0 -2.73633,-1.221993 -2.73633,-2.736329 0,-1.514335 1.222,-2.736328 2.73633,-2.736328 z"
         id="circle3124" /><path
         style="color:#000000;fill:#444444;stroke-width:0.096117;stroke-linejoin:round;-inkscape-stroke:none"
         d="m 228.01562,26.318359 c -1.37581,0 -2.49804,1.12223 -2.49804,2.498047 0,1.375818 1.12223,2.498047 2.49804,2.498047 1.37582,0 2.49805,-1.122229 2.49805,-2.498047 0,-1.375817 -1.12223,-2.498047 -2.49805,-2.498047 z m 0,0.640625 c 1.02976,0 1.85743,0.827666 1.85743,1.857422 0,1.029757 -0.82767,1.857422 -1.85743,1.857422 -1.02975,0 -1.85742,-0.827665 -1.85742,-1.857422 0,-1.029756 0.82767,-1.857422 1.85742,-1.857422 z"
         id="circle3126" /><path
         style="color:#000000;fill:#444444;stroke-width:0.096117;stroke-linejoin:round;-inkscape-stroke:none"
         d="m 296.94922,50.683594 c -3.19414,0.03674 -6.40638,1.595499 -9.22852,4.58789 l 1.66797,1.572266 c 3.35627,-3.558742 6.72634,-4.545511 10.04492,-3.5 3.31859,1.045511 6.74595,4.348685 9.57618,9.994141 5.66045,11.290911 7.61464,29.33048 4.76171,45.064449 -1.42646,7.86699 -3.90152,14.34763 -6.91015,18.77149 -3.00863,4.42385 -6.45204,6.7125 -9.90821,6.6875 -3.45616,-0.025 -6.90155,-2.36766 -9.89843,-6.83789 -2.99689,-4.47024 -5.45126,-10.98685 -6.85352,-18.875 l -2.25586,0.40039 c 1.44448,8.1256 3.96151,14.90889 7.20703,19.75 3.24553,4.84111 7.31386,7.82117 11.78516,7.85351 4.4713,0.0323 8.55596,-2.89246 11.81836,-7.68945 3.26239,-4.79699 5.79987,-11.54516 7.26953,-19.65039 2.93932,-16.210461 1.02969,-34.536845 -4.96875,-46.501953 -2.99922,-5.982554 -6.75193,-9.834305 -10.93555,-11.152344 -1.0459,-0.32951 -2.10716,-0.486856 -3.17187,-0.474609 z"
         id="path3128"
         transform="matrix(0.98805411,-0.15410735,-0.61450363,0.788914,0,0)" /></g></g></svg>
