<?xml version="1.0" encoding="UTF-8" standalone="no"?>
<!-- Created with Inkscape (http://www.inkscape.org/) -->

<svg
   width="256mm"
   height="52.386246mm"
   viewBox="0 0 256 52.386246"
   version="1.1"
   id="svg989"
   inkscape:version="1.2 (1:1.2+202206011327+fc4e4096c5)"
   sodipodi:docname="logo.svg"
   xmlns:inkscape="http://www.inkscape.org/namespaces/inkscape"
   xmlns:sodipodi="http://sodipodi.sourceforge.net/DTD/sodipodi-0.dtd"
   xmlns="http://www.w3.org/2000/svg"
   xmlns:svg="http://www.w3.org/2000/svg">
  <sodipodi:namedview
     id="namedview991"
     pagecolor="#ffffff"
     bordercolor="#666666"
     borderopacity="1.0"
     inkscape:showpageshadow="2"
     inkscape:pageopacity="0.0"
     inkscape:pagecheckerboard="0"
     inkscape:deskcolor="#d1d1d1"
     inkscape:document-units="mm"
     showgrid="false"
     inkscape:zoom="0.82242033"
     inkscape:cx="581.81927"
     inkscape:cy="65.051894"
     inkscape:window-width="1528"
     inkscape:window-height="836"
     inkscape:window-x="72"
     inkscape:window-y="27"
     inkscape:window-maximized="1"
     inkscape:current-layer="layer1" />
  <defs
     id="defs986" />
  <g
     inkscape:label="Layer 1"
     inkscape:groupmode="layer"
     id="layer1"
     transform="translate(-3.0579416e-5)">
    <g
       aria-label="CosmoTools"
       id="text14812"
       style="font-size:32.8152px;font-family:'URW Gothic';-inkscape-font-specification:'URW Gothic';text-align:center;text-anchor:middle;fill:#4d4d4d;stroke-width:1.57914;stroke-linejoin:round" />
    <g
       id="g397">
      <g
         id="g372"
         style="font-size:32.8152px;font-family:'URW Gothic';-inkscape-font-specification:'URW Gothic';text-align:center;text-anchor:middle;fill:#4d4d4d;stroke-width:1.57914;stroke-linejoin:round">
        <path
           d="m 93.105667,31.951795 c -1.017271,1.279792 -1.607944,1.936096 -2.428324,2.559585 -1.64076,1.279793 -3.806564,2.001728 -6.005182,2.001728 -5.644215,0 -10.238343,-4.626944 -10.238343,-10.336789 0,-5.841105 4.397237,-10.303973 10.205528,-10.303973 2.100172,0 4.069085,0.557859 5.677029,1.64076 1.082902,0.689119 1.739206,1.411054 2.658032,2.854923 h 2.723661 C 93.827602,16.200498 89.561626,13.640913 84.5409,13.640913 c -7.219344,0 -12.568222,5.381692 -12.568222,12.633852 0,7.120898 5.480139,12.469776 12.732298,12.469776 4.92228,0 8.663213,-2.297064 11.091538,-6.792746 z"
           id="path294" />
        <path
           d="m 107.87245,19.941431 c -5.34888,0 -9.417967,4.03627 -9.417967,9.286702 0,5.545769 4.036267,9.516408 9.614857,9.516408 5.25043,0 9.12262,-3.970639 9.12262,-9.352332 0,-5.480139 -3.90501,-9.450778 -9.31951,-9.450778 z m 0,2.231434 c 3.97064,0 6.85837,3.051813 6.85837,7.252159 0,4.134715 -2.8221,7.088084 -6.72711,7.088084 -4.13472,0 -7.08809,-2.986184 -7.08809,-7.219345 0,-4.069085 2.98619,-7.120898 6.95683,-7.120898 z"
           id="path296" />
        <path
           d="m 119.16083,33.034696 c 0.0328,3.478412 2.29707,5.709845 5.77548,5.709845 3.2487,0 5.48014,-2.297064 5.48014,-5.578584 0,-2.198618 -1.01727,-3.708118 -3.11745,-4.594128 -2.75647,-1.148532 -2.88773,-1.181347 -3.37996,-1.443869 -1.11572,-0.557858 -1.64076,-1.312608 -1.64076,-2.362694 0,-1.443869 1.14853,-2.592401 2.5924,-2.592401 1.57513,0 2.49395,0.918825 2.62522,2.625216 h 2.46114 c -0.0985,-2.887738 -2.16581,-4.85665 -5.05355,-4.85665 -2.92055,0 -5.08635,2.132988 -5.08635,5.053541 0,1.312608 0.45941,2.39551 1.34542,3.21589 0.75475,0.689119 0.78757,0.721934 3.31434,1.739205 2.78929,1.148532 3.47841,1.804836 3.47841,3.445596 0,1.804836 -1.24698,3.117445 -3.019,3.117445 -2.03454,0 -3.24871,-1.246978 -3.37997,-3.478412 z"
           id="path298" />
        <path
           d="m 133.36977,38.317944 h 2.42832 V 27.849895 c 0,-3.576857 1.80484,-5.67703 4.82384,-5.67703 1.47668,0 2.85492,0.590673 3.74093,1.64076 0.78757,0.918825 1.11572,2.165803 1.11572,4.03627 v 10.468049 h 2.42832 V 27.915525 c 0,-1.739206 0.26252,-2.822107 0.8532,-3.708118 0.85319,-1.279793 2.36269,-2.034542 4.06908,-2.034542 1.57513,0 2.95337,0.623489 3.77375,1.70639 0.6563,0.886011 0.98446,2.231434 0.98446,4.03627 v 10.402419 h 2.42832 V 27.653003 c 0,-2.362694 -0.4266,-3.872193 -1.44387,-5.184801 -1.24697,-1.607945 -3.28152,-2.526771 -5.6114,-2.526771 -2.78929,0 -4.72539,1.050087 -6.23488,3.445596 -1.41106,-2.428325 -3.15026,-3.445596 -5.87393,-3.445596 -2.26424,0 -3.64248,0.689119 -5.05354,2.493955 v -2.067357 h -2.42832 z"
           id="path300" />
        <path
           d="m 172.87926,19.941431 c -5.34887,0 -9.41796,4.03627 -9.41796,9.286702 0,5.545769 4.03627,9.516408 9.61485,9.516408 5.25044,0 9.12263,-3.970639 9.12263,-9.352332 0,-5.480139 -3.90501,-9.450778 -9.31952,-9.450778 z m 0,2.231434 c 3.97064,0 6.85838,3.051813 6.85838,7.252159 0,4.134715 -2.82211,7.088084 -6.72712,7.088084 -4.13471,0 -7.08808,-2.986184 -7.08808,-7.219345 0,-4.069085 2.98618,-7.120898 6.95682,-7.120898 z"
           id="path302" />
        <path
           d="m 187.87576,38.317944 h 2.42833 V 16.266129 h 5.54577 V 14.06751 H 182.33 v 2.198619 h 5.54576 z"
           id="path304" />
        <path
           d="m 205.39904,19.941431 c -5.34888,0 -9.41796,4.03627 -9.41796,9.286702 0,5.545769 4.03627,9.516408 9.61485,9.516408 5.25043,0 9.12263,-3.970639 9.12263,-9.352332 0,-5.480139 -3.90501,-9.450778 -9.31952,-9.450778 z m 0,2.231434 c 3.97064,0 6.85838,3.051813 6.85838,7.252159 0,4.134715 -2.82211,7.088084 -6.72712,7.088084 -4.13472,0 -7.08808,-2.986184 -7.08808,-7.219345 0,-4.069085 2.98618,-7.120898 6.95682,-7.120898 z"
           id="path306" />
        <path
           d="m 226.89296,19.941431 c -5.34888,0 -9.41796,4.03627 -9.41796,9.286702 0,5.545769 4.03626,9.516408 9.61485,9.516408 5.25043,0 9.12262,-3.970639 9.12262,-9.352332 0,-5.480139 -3.905,-9.450778 -9.31951,-9.450778 z m 0,2.231434 c 3.97064,0 6.85837,3.051813 6.85837,7.252159 0,4.134715 -2.8221,7.088084 -6.72711,7.088084 -4.13472,0 -7.08808,-2.986184 -7.08808,-7.219345 0,-4.069085 2.98618,-7.120898 6.95682,-7.120898 z"
           id="path308" />
        <path
           d="m 239.65803,38.317944 h 2.42832 V 14.06751 h -2.42832 z"
           id="path310" />
        <path
           d="m 244.74435,33.034696 c 0.0328,3.478412 2.29706,5.709845 5.77547,5.709845 3.24871,0 5.48014,-2.297064 5.48014,-5.578584 0,-2.198618 -1.01727,-3.708118 -3.11744,-4.594128 -2.75648,-1.148532 -2.88774,-1.181347 -3.37997,-1.443869 -1.11572,-0.557858 -1.64076,-1.312608 -1.64076,-2.362694 0,-1.443869 1.14853,-2.592401 2.5924,-2.592401 1.57513,0 2.49396,0.918825 2.62522,2.625216 h 2.46114 c -0.0984,-2.887738 -2.16581,-4.85665 -5.05354,-4.85665 -2.92056,0 -5.08636,2.132988 -5.08636,5.053541 0,1.312608 0.45941,2.39551 1.34542,3.21589 0.75475,0.689119 0.78757,0.721934 3.31434,1.739205 2.78929,1.148532 3.47841,1.804836 3.47841,3.445596 0,1.804836 -1.24698,3.117445 -3.019,3.117445 -2.03454,0 -3.2487,-1.246978 -3.37996,-3.478412 z"
           id="path312" />
      </g>
      <path
         id="path14834"
         style="fill:#4d4d4d;fill-opacity:1;stroke-width:0.272419;stroke-linejoin:round"
         d="m 18.501993,1.1511178 a 26.199148,26.199148 0 0 0 -4.582187,1.9470474 c 1.13432,-0.5771447 2.35212,-1.0764892 3.793959,-1.5667553 3.419131,-1.16260796 6.324141,-1.58475638 9.504914,-1.38068583 1.847934,0.11844859 5.436069,0.71936086 5.497924,0.92070393 0.08767,0.2866729 -0.663351,1.3543564 -1.519474,2.1602938 -1.021424,0.9599595 -2.113177,1.4331694 -6.9233,2.995853 C 21.16582,7.2373101 20.375643,7.4493973 18.690478,7.7260371 16.309233,8.1170343 13.704631,8.3701013 12.147655,8.3620164 10.349497,8.3525386 8.0601075,8.1565821 7.8067483,7.9907931 7.6810915,7.9060478 7.6489467,7.7966582 7.7483032,7.6201542 A 26.199148,26.199148 0 0 0 2.7902169,14.434055 c 0.00974,-0.01656 0.00974,-0.03312 0.038963,-0.04578 0.3068363,-0.335572 0.3409293,-0.345605 0.8640123,-0.24956 0.6409471,0.118449 1.2722507,0.683125 1.3878745,1.242872 0.068186,0.342391 0.00974,0.441845 -0.4373636,0.735726 -0.2854066,0.186732 -1.1273072,0.570034 -1.8715071,0.851739 -0.7743966,0.293881 -1.1133778,0.408141 -1.2276378,0.392945 a 26.199148,26.199148 0 0 0 -1.54236423,9.199276 l 1.00895593,-0.78667 c 0.6175691,-0.481879 1.8050746,-1.366474 2.6377214,-1.966022 2.001937,-1.44104 3.6821341,-2.741832 7.1234747,-5.515925 3.283929,-2.647199 4.375487,-3.422433 5.938599,-4.216847 1.210981,-0.615621 2.050934,-0.86372 8.429234,-2.489671 4.337985,-1.105887 6.430999,-1.9003008 7.27212,-2.7596375 0.751018,-0.7676754 1.648929,-2.349003 2.669476,-4.7078442 0.469509,-1.0813694 0.887391,-1.9746821 0.933173,-1.9846665 0.03896,-0.010715 0.588346,0.227546 1.209617,0.5277586 l 1.127307,0.5452921 -0.3458,0.9133009 c -0.77537,2.041816 -0.776344,2.9705464 -0.0028,3.3488903 0.601984,0.295537 1.197052,0.2226755 3.197528,-0.3911921 1.526584,-0.4685343 1.890989,-0.5407139 2.118827,-0.4195379 0.494834,0.2624182 0.371126,0.562436 -0.486068,1.1738976 -1.05201,0.751116 -2.808965,1.5439812 -6.061334,2.7346717 -1.440572,0.527856 -3.03729,1.155361 -3.546346,1.394849 -1.893717,0.89041 -4.023453,2.764177 -8.402544,7.393189 -2.868969,3.032673 -3.46355,3.609983 -4.584233,4.448709 -1.959272,1.466424 -4.744665,2.492358 -6.983012,2.572126 -2.112982,0.07501 -4.2530449,0.401323 -6.8283275,1.040526 -2.9676436,0.736505 -3.4304308,0.935608 -4.7640489,2.050836 -0.5727612,0.478567 -1.12448226,0.895183 -1.22627401,0.926256 -0.0389634,0.01169 -0.0681859,0.01169 -0.0974084,-0.01266 a 26.199148,26.199148 0 0 0 0.80946361,3.503828 26.199148,26.199148 0 0 0 3.3756873,7.037181 l 0.068186,-0.18644 c 0.2513136,-0.70738 1.2722508,-2.031568 2.3682898,-3.070429 l 1.0437307,-0.989669 3.5638804,-1.174589 3.563296,-1.174453 1.554443,-1.191733 c 2.939979,-2.253932 3.317827,-2.373267 7.842835,-2.477533 l 1.835564,-0.04189 3.051609,-0.94301 c 3.341108,-1.032734 4.068261,-1.380141 5.113356,-2.448233 0.938042,-0.957914 1.250041,-1.879027 1.510706,-4.464567 0.434441,-4.279637 0.821153,-4.757279 5.310705,-6.55496 2.734058,-1.094598 3.005925,-1.225729 3.799511,-1.830752 0.693548,-0.52883 1.085519,-1.278962 1.430344,-2.740029 0.125657,-0.556299 0.275666,-1.024649 0.326319,-1.040672 0.157801,-0.05552 1.913197,2.68512 2.554339,4.00177 0.349696,0.719653 0.248392,1.016982 -0.618543,1.801977 -0.413985,0.37434 -0.971161,0.938919 -1.243028,1.254717 -0.573735,0.671436 -0.634129,1.106023 -0.423727,3.132088 0.174361,1.660063 0.0097,2.449081 -0.618543,3.235303 -0.894209,1.100451 -2.757436,2.356717 -4.797947,3.236071 -1.946316,0.838881 -2.026289,0.889242 -2.326599,1.459626 -0.28151,0.535843 -0.375996,1.270176 -0.316577,2.467257 0.03896,0.695203 -0.314629,1.430568 -1.51772,3.200381 -0.943887,1.387514 -1.047919,2.036683 -0.539642,3.40192 0.413985,1.110211 0.804593,1.545549 1.360113,1.516667 0.630232,-0.03312 1.240203,-0.903657 2.018009,-2.8832 0.395478,-1.005556 0.848427,-1.943852 1.008956,-2.084938 0.447105,-0.397037 0.983825,-0.503602 1.98002,-0.393823 0.728615,0.08085 1.114839,0.03896 1.889041,-0.201343 1.210981,-0.376386 1.999794,-0.891579 3.70746,-2.427611 1.358652,-1.22267 2.209806,-1.696104 2.639183,-1.468539 0.3721,0.197447 -0.0097,1.332196 -0.673092,1.92555 -0.206506,0.188387 -0.751019,0.889046 -1.210981,1.557306 -0.914665,1.32606 -1.159355,1.515441 -2.977092,2.301156 -1.210981,0.523668 -1.999307,1.144354 -2.099443,1.654959 -0.08767,0.431422 0.209428,1.258623 0.53672,1.513716 0.157802,0.122637 0.504575,0.198129 0.7705,0.16803 0.397426,-0.04578 0.621466,-0.190336 1.241567,-0.803522 0.715952,-0.709035 1.845987,-1.506518 2.356017,-1.662858 0.4247,-0.131015 0.343851,0.264463 -0.285407,1.403596 -0.485093,0.877065 -0.731537,1.180999 -1.107825,1.36662 -0.264951,0.131014 -1.081331,0.590392 -1.810432,1.019349 -1.217897,0.717413 -1.559703,0.852421 -4.246031,1.685954 l -2.921083,0.90619 -0.759785,0.768942 c -0.417882,0.422947 -1.256958,1.440699 -1.865663,2.261521 -0.607828,0.82086 -1.269523,1.630109 -1.470477,1.798908 -0.469508,0.395478 -2.38368,0.978662 -3.483031,1.060037 -0.458793,0.03312 -1.340534,0.075 -1.961902,0.09351 -0.872779,0.02533 -1.48275,0.137931 -2.689543,0.505452 -1.802444,0.548799 -2.383388,0.911451 -3.310131,2.064639 -0.320474,0.397718 -0.618543,0.730368 -0.682833,0.755792 A 26.199148,26.199148 0 0 0 33.890666,51.245742 26.199148,26.199148 0 0 0 51.251371,18.513362 26.199148,26.199148 0 0 0 18.518455,1.1529199 Z m -4.582187,1.9470474 c -0.211376,0.107344 -0.420804,0.2161491 -0.62731,0.3294351 a 26.199148,26.199148 0 0 1 0.62731,-0.3294351 z M 12.03583,4.1718587 C 11.664704,4.4088533 11.29163,4.668057 10.916803,4.9370015 A 26.199148,26.199148 0 0 1 12.03583,4.1718587 Z M 10.370926,5.3339114 A 26.199148,26.199148 0 0 0 9.8020614,5.7753662 C 9.9929819,5.6248702 10.181954,5.4746665 10.370926,5.3339114 Z m 11.676537,9.2242326 c -1.763091,0.515874 -4.765899,1.666004 -5.680077,2.201848 -0.983825,0.576463 -2.118048,1.597906 -3.672783,3.306654 -2.279453,2.505538 -3.0892091,3.934305 -2.7849053,4.913522 0.1918943,0.617764 0.3039143,0.732803 0.8221263,0.836835 1.16218,0.233391 2.991801,-0.23339 5.398567,-1.377617 2.65584,-1.262666 3.739995,-2.145761 6.820145,-5.552921 1.858357,-2.055872 2.687108,-3.342344 2.514695,-3.904585 -0.275666,-0.893527 -0.896157,-1.03022 -2.749157,-0.602568 -0.191894,0.04286 -0.417882,0.105883 -0.670169,0.178939 z m 22.380646,2.43855 -1.304395,0.497075 c -3.305067,1.25876 -4.834768,2.449324 -5.164203,4.018894 -0.184102,0.875312 -0.272743,4.094659 -0.125657,4.570694 0.05844,0.178257 0.221117,0.354956 0.369178,0.392263 0.32437,0.08182 1.279264,-0.337325 1.657696,-0.729394 0.157801,-0.1541 0.456845,-0.536817 0.683807,-0.849109 0.387685,-0.532044 0.502627,-0.601594 1.850174,-1.102545 l 1.437261,-0.53487 0.209428,-1.126508 c 0.125657,-0.61981 0.349696,-1.513171 0.521135,-1.984735 0.362359,-0.99413 0.378918,-1.484114 0.08767,-2.452207 z M 23.093142,31.983723 c -0.776345,0.191602 -1.519473,0.636174 -1.872968,1.246769 -0.459768,0.794949 0.05844,1.555193 1.116202,1.664943 0.635103,0.06429 2.123698,-0.552793 2.657788,-1.104777 0.589321,-0.610458 0.649714,-1.13585 0.175335,-1.532779 -0.485094,-0.403466 -1.296018,-0.46571 -2.071097,-0.274205 z m -6.373722,2.856822 c -0.451975,0.09897 -1.068862,0.563507 -2.309358,1.670369 -1.601686,1.427568 -2.102657,1.641496 -3.945624,1.680703 -1.8870921,0.03896 -2.7881195,0.385153 -4.2653176,1.633792 -0.5961392,0.504867 -1.2388397,1.010573 -1.4250845,1.123304 l -0.1578016,0.09897 A 26.199148,26.199148 0 0 0 16.75926,50.632177 l 0.737381,-1.328992 c 0.950706,-1.714143 1.431903,-2.144533 3.946403,-3.533498 2.257245,-1.246915 2.843351,-1.663725 3.112295,-2.211501 0.09741,-0.213033 0.333137,-1.129022 0.50555,-2.035582 l 0.314629,-1.648316 2.767177,-0.924015 c 3.057649,-1.021162 2.879586,-0.916126 4.330679,-2.547366 1.305662,-1.467486 1.926445,-2.029279 2.852896,-2.583455 0.982461,-0.58708 1.615811,-1.163991 1.638507,-1.488488 0.0097,-0.129553 -0.06819,-0.490256 -0.157802,-0.800697 -0.225987,-0.735335 -0.759785,-0.97421 -1.60003,-0.716146 -0.680884,0.209038 -2.020152,1.141285 -3.054727,2.126805 -1.807022,1.721479 -2.832148,2.115437 -6.073607,2.333846 -2.86254,0.192869 -2.88095,0.195401 -3.873638,0.499997 -1.243029,0.381451 -1.676983,0.68556 -3.994036,2.80692 -1.128768,1.033844 -2.341697,2.087783 -2.693829,2.342058 -0.835764,0.604224 -2.667431,1.170829 -5.5189635,1.708017 -3.2844156,0.618835 -3.610344,0.664714 -3.7099928,0.522888 -0.1256568,-0.171536 0.6438694,-0.783456 1.4127137,-1.129022 0.3652814,-0.164522 1.3349818,-0.382522 2.4421256,-0.548993 1.010319,-0.152347 2.326501,-0.383107 2.925758,-0.513829 1.287544,-0.280829 1.311214,-0.300408 2.800783,-2.456981 0.539642,-0.779851 1.19559,-1.691019 1.458203,-2.024496 0.416908,-0.526785 0.459768,-0.666079 0.339955,-1.061021 -0.09741,-0.341514 -0.235728,-0.482756 -0.530875,-0.567891 -0.125657,-0.03896 -0.263003,-0.04578 -0.413986,-0.01169 z m 13.534796,6.086358 c -1.202604,0.422363 -2.253153,1.183375 -2.345204,1.889654 -0.157801,1.211663 0.842583,2.13189 2.257634,2.075081 0.62244,-0.02533 2.387577,-0.705139 3.014108,-1.162189 0.641921,-0.468632 1.202603,-1.542773 1.056296,-2.021497 -0.141242,-0.429181 -1.099448,-1.007231 -1.827284,-1.090701 -0.657506,-0.075 -1.433656,0.05552 -2.155355,0.309759 z m -12.918591,9.909948 a 26.199148,26.199148 0 0 0 5.489936,1.328154 c -0.221117,-0.02825 -0.842582,-0.152347 -1.656039,-0.337813 -0.945836,-0.216051 -2.329814,-0.56565 -3.076936,-0.776637 z" />
    </g>
  </g>
</svg>
