<?xml version="1.0" encoding="UTF-8" standalone="no"?>
<!-- Created with Inkscape (http://www.inkscape.org/) -->

<svg
   width="24"
   height="24"
   viewBox="0 0 6.3499998 6.35"
   version="1.1"
   id="svg3884"
   inkscape:version="1.2 (1:1.2+202206011327+fc4e4096c5)"
   sodipodi:docname="refresh.svg"
   xmlns:inkscape="http://www.inkscape.org/namespaces/inkscape"
   xmlns:sodipodi="http://sodipodi.sourceforge.net/DTD/sodipodi-0.dtd"
   xmlns="http://www.w3.org/2000/svg"
   xmlns:svg="http://www.w3.org/2000/svg">
  <sodipodi:namedview
     id="namedview3886"
     pagecolor="#ffffff"
     bordercolor="#666666"
     borderopacity="1.0"
     inkscape:showpageshadow="2"
     inkscape:pageopacity="0.0"
     inkscape:pagecheckerboard="0"
     inkscape:deskcolor="#d1d1d1"
     inkscape:document-units="mm"
     showgrid="false"
     inkscape:zoom="11.536533"
     inkscape:cx="13.955666"
     inkscape:cy="17.379572"
     inkscape:window-width="1452"
     inkscape:window-height="672"
     inkscape:window-x="262"
     inkscape:window-y="43"
     inkscape:window-maximized="0"
     inkscape:current-layer="layer1" />
  <defs
     id="defs3881" />
  <g
     inkscape:label="Layer 1"
     inkscape:groupmode="layer"
     id="layer1">
    <path
       id="path2414"
       style="color:#000000;fill:#000000;stroke-width:0.999998;stroke-linecap:round;stroke-linejoin:round"
       d="M 2.8508256,0.32431891 C 1.2804494,0.32431891 0,1.6047674 0,3.1751431 c 0,1.5703746 1.2804485,2.8505424 2.8508256,2.8505424 1.1310403,0 2.1128621,-0.6613251 2.5723072,-1.6205074 A 0.34042598,0.34042598 0 0 0 5.263045,3.9511622 0.34042598,0.34042598 0 0 0 4.809029,4.1110386 c -0.3492804,0.7291942 -1.0921799,1.233765 -1.9582034,1.233765 -1.202417,0 -2.16994374,-0.9672446 -2.16994374,-2.1696605 0,-1.202417 0.96752674,-2.170013 2.16994374,-2.170013 0.9773537,0 1.7995061,0.6392942 2.0730443,1.5243151 L 4.5933512,2.3386766 A 0.34042666,0.34042666 0 0 0 4.1282181,2.4631586 0.34042666,0.34042666 0 0 0 4.2526983,2.9282917 L 5.4170109,3.6003771 5.5978563,3.419601 a 0.34042598,0.34042598 0 0 0 0.00781,-0.00781 L 6.2503146,2.7674263 a 0.34042666,0.34042666 0 0 0 0,-0.4813895 0.34042666,0.34042666 0 0 0 -0.2407294,-0.099782 0.34042666,0.34042666 0 0 0 -0.2409404,0.099782 L 5.6071487,2.4475324 C 5.2842103,1.2277416 4.1698833,0.32431452 2.8508309,0.32431452 Z" />
  </g>
</svg>
