<?xml version="1.0" encoding="UTF-8" standalone="no"?>
<!-- Created with Inkscape (http://www.inkscape.org/) -->

<svg
   width="48"
   height="48"
   viewBox="0 0 12.7 12.7"
   version="1.1"
   id="svg5"
   inkscape:version="1.2 (1:1.2+202206011327+fc4e4096c5)"
   sodipodi:docname="table.svg"
   xmlns:inkscape="http://www.inkscape.org/namespaces/inkscape"
   xmlns:sodipodi="http://sodipodi.sourceforge.net/DTD/sodipodi-0.dtd"
   xmlns="http://www.w3.org/2000/svg"
   xmlns:svg="http://www.w3.org/2000/svg">
  <sodipodi:namedview
     id="namedview7"
     pagecolor="#ffffff"
     bordercolor="#666666"
     borderopacity="1.0"
     inkscape:showpageshadow="2"
     inkscape:pageopacity="0.0"
     inkscape:pagecheckerboard="0"
     inkscape:deskcolor="#d1d1d1"
     inkscape:document-units="mm"
     showgrid="false"
     inkscape:zoom="5.660929"
     inkscape:cx="23.141078"
     inkscape:cy="34.005019"
     inkscape:window-width="1528"
     inkscape:window-height="836"
     inkscape:window-x="72"
     inkscape:window-y="27"
     inkscape:window-maximized="1"
     inkscape:current-layer="rect297" />
  <defs
     id="defs2" />
  <g
     inkscape:label="Layer 1"
     inkscape:groupmode="layer"
     id="layer1">
    <g
       id="rect297"
       transform="rotate(-45)">
      <path
         id="rect1154"
         style="fill:#000000;stroke:none;stroke-width:0.7;stroke-linecap:round;stroke-linejoin:miter"
         d="M 1.7368449 2.0696411 C 1.3583117 2.0696411 1.0536825 2.3742703 1.0536825 2.7528035 L 1.0536825 9.8453939 C 1.0536825 10.223927 1.3583117 10.528556 1.7368449 10.528556 L 10.963155 10.528556 C 11.341688 10.528556 11.646318 10.223927 11.646318 9.8453939 L 11.646318 2.7528035 C 11.646318 2.3742703 11.341688 2.0696411 10.963155 2.0696411 L 1.7368449 2.0696411 z M 2.0200317 4.4741455 L 4.4012817 4.4741455 L 4.4012817 5.6497843 L 2.0200317 5.6497843 L 2.0200317 4.4741455 z M 5.159375 4.4741455 L 7.540625 4.4741455 L 7.540625 5.6497843 L 5.159375 5.6497843 L 5.159375 4.4741455 z M 8.2987183 4.4741455 L 10.679968 4.4741455 L 10.679968 5.6497843 L 8.2987183 5.6497843 L 8.2987183 4.4741455 z M 2.0200317 6.2916056 L 4.4012817 6.2916056 L 4.4012817 7.4672445 L 2.0200317 7.4672445 L 2.0200317 6.2916056 z M 5.159375 6.2916056 L 7.540625 6.2916056 L 7.540625 7.4672445 L 5.159375 7.4672445 L 5.159375 6.2916056 z M 8.2987183 6.2916056 L 10.679968 6.2916056 L 10.679968 7.4672445 L 8.2987183 7.4672445 L 8.2987183 6.2916056 z M 2.0200317 8.108549 L 4.4012817 8.108549 L 4.4012817 9.2841878 L 2.0200317 9.2841878 L 2.0200317 8.108549 z M 5.159375 8.108549 L 7.540625 8.108549 L 7.540625 9.2841878 L 5.159375 9.2841878 L 5.159375 8.108549 z M 8.2987183 8.108549 L 10.679968 8.108549 L 10.679968 9.2841878 L 8.2987183 9.2841878 L 8.2987183 8.108549 z "
         transform="rotate(45)" />
    </g>
  </g>
</svg>
